<svg width="162" height="33" viewBox="0 0 162 33" fill="none" xmlns="http://www.w3.org/2000/svg">
<path d="M53.0397 4.92212H64.5128C69.8799 4.92212 73.5114 8.86071 73.5114 14.4192C73.5114 19.9778 69.8799 24.0009 64.5128 24.0009H59.7998V32.5323H53.0397V4.92212ZM63.1198 18.2065C65.4785 18.2065 66.6356 16.6222 66.6356 14.4192C66.6356 12.2163 65.4785 10.7121 63.2355 10.7121H59.7998V18.2065H63.1198ZM84.9801 12.1807C91.2774 12.1807 96.2974 16.3908 96.2974 22.648C96.2974 28.9052 91.2774 32.9996 85.0201 32.9996C78.7629 32.9996 73.7428 28.8652 73.7428 22.648C73.7428 16.4308 78.7629 12.1807 84.9801 12.1807ZM85.0201 27.4366C87.4545 27.4366 89.5373 25.6209 89.5373 22.648C89.5373 19.6751 87.4545 17.7526 85.0201 17.7526C82.5858 17.7526 80.503 19.644 80.503 22.648C80.503 25.652 82.5858 27.4455 85.0201 27.4455V27.4366ZM100.316 25.5808C100.316 25.5808 102.515 27.5924 105.376 27.5924C106.378 27.5924 107.343 27.3209 107.343 26.6622C107.343 24.9266 98.0375 24.7308 98.0375 18.2466C98.0375 14.4993 101.629 12.1807 106.226 12.1807C110.823 12.1807 113.213 14.4593 113.213 14.4593L110.939 19.2079C109.584 18.1775 107.933 17.6096 106.231 17.5879C105.225 17.5879 104.259 17.8594 104.259 18.5536C104.259 20.0579 113.565 20.2893 113.565 26.7023C113.565 30.1024 110.552 32.9996 105.416 32.9996C102.496 33.0238 99.6671 31.9791 97.4634 30.0623L100.316 25.5808ZM117.423 18.2065H114.878V12.9907H117.615V7.27638H124.099V12.9907H128.296V18.2065H124.121V24.3302C124.121 26.5554 126.4 26.8803 127.681 26.8803C127.979 26.8822 128.276 26.8688 128.572 26.8403V32.6258C127.97 32.707 127.363 32.7457 126.756 32.7415C123.587 32.7415 117.446 31.8914 117.446 25.2114L117.423 18.2065ZM141.718 20.138H141.989V19.7909C141.989 18.1264 140.712 17.5657 139.052 17.5657C136.542 17.5657 133.685 19.4571 133.685 19.4571L131.366 14.7664C133.831 13.0982 136.735 12.1984 139.711 12.1807C145.309 12.1807 148.669 15.2337 148.669 20.2893V32.5323H142.568V31.3351C142.569 30.9231 142.595 30.5115 142.644 30.1024H142.568C142.568 30.1024 141.099 32.9996 136.929 32.9996C133.222 32.9996 130.169 30.5252 130.169 26.5866C130.169 20.7922 138.629 20.138 141.718 20.138V20.138ZM138.781 27.8906C140.521 27.8906 142.065 25.9991 142.065 24.3747V23.9297H141.447C139.324 23.9297 136.889 24.5483 136.889 26.2083C136.889 27.1651 137.468 27.8906 138.781 27.8906ZM152.261 4.91322H158.937V24.3302C158.937 26.2217 159.284 26.8803 160.788 26.8803C161.233 26.8803 161.598 26.8403 161.598 26.8403V32.6258C160.931 32.7014 160.261 32.74 159.591 32.7415C156.03 32.7415 152.252 31.8914 152.252 25.2114L152.261 4.91322ZM6.67557 9.58167V24.8242C6.67557 25.0603 6.76935 25.2867 6.93627 25.4536C7.10319 25.6205 7.32959 25.7143 7.56565 25.7143H38.8652V11.4241L24.3213 20.0045L6.67557 9.58167ZM4.89542 24.8242V4.89542H2.67023C1.96204 4.89542 1.28286 5.17675 0.782092 5.67751C0.281327 6.17828 0 6.85746 0 7.56565V29.7197C0 30.0703 0.0690673 30.4175 0.203259 30.7415C0.337451 31.0655 0.534138 31.3598 0.782092 31.6078C1.03005 31.8558 1.32441 32.0524 1.64838 32.1866C1.97234 32.3208 2.31957 32.3899 2.67023 32.3899H36.1816C36.8898 32.3899 37.569 32.1086 38.0697 31.6078C38.5705 31.107 38.8518 30.4278 38.8518 29.7197V27.4945H7.56565C6.85746 27.4945 6.17828 27.2131 5.67751 26.7124C5.17675 26.2116 4.89542 25.5324 4.89542 24.8242ZM24.3213 17.9217L38.8652 9.34135V7.5612C38.8652 6.85301 38.5839 6.17383 38.0831 5.67306C37.5823 5.1723 36.9032 4.89097 36.195 4.89097H6.67557V7.50779L24.3213 17.9217ZM41.0681 0H7.56565C6.85746 0 6.17828 0.281327 5.67751 0.782092C5.17675 1.28286 4.89542 1.96204 4.89542 2.67023V4.89542H6.67557V2.67023C6.67557 2.43417 6.76935 2.20777 6.93627 2.04085C7.10319 1.87393 7.32959 1.78015 7.56565 1.78015H41.0681C41.3042 1.78015 41.5306 1.87393 41.6975 2.04085C41.8644 2.20777 41.9582 2.43417 41.9582 2.67023V7.51225L38.8429 9.34135V11.4241L41.9582 9.59503V24.8376C41.9582 25.0737 41.8644 25.3 41.6975 25.467C41.5306 25.6339 41.3042 25.7277 41.0681 25.7277H38.8429V27.5078H41.0681C41.7763 27.5078 42.4555 27.2265 42.9563 26.7257C43.457 26.225 43.7384 25.5458 43.7384 24.8376V2.67023C43.7384 1.96204 43.457 1.28286 42.9563 0.782092C42.4555 0.281327 41.7763 0 41.0681 0Z" fill="#1D1D1B"/>
</svg>
