<?xml version="1.0" encoding="UTF-8"?>
<svg width="584px" height="159px" viewBox="0 0 584 159" version="1.1" xmlns="http://www.w3.org/2000/svg" xmlns:xlink="http://www.w3.org/1999/xlink">
    <title>Artboard</title>
    <defs>
        <linearGradient x1="0%" y1="50.0032639%" x2="100%" y2="50.0032639%" id="linearGradient-1">
            <stop stop-color="#FFDE00" offset="0%"></stop>
            <stop stop-color="#FF9900" offset="100%"></stop>
        </linearGradient>
        <linearGradient x1="2.85484238%" y1="76.5389386%" x2="84.0429135%" y2="-1.61237679%" id="linearGradient-2">
            <stop stop-color="#FFDE00" offset="0%"></stop>
            <stop stop-color="#FF9900" offset="100%"></stop>
        </linearGradient>
    </defs>
    <g id="Artboard" stroke="none" stroke-width="1" fill="none" fill-rule="evenodd">
        <g id="logo-dark" transform="translate(0, 0.7366)" fill-rule="nonzero">
            <path d="M167.547154,25.6468323 L217.971705,25.6468323 C229.459936,25.6468323 238.412153,28.9266159 244.85524,35.5041054 C251.298327,42.0815949 254.551235,50.7380729 254.551235,61.5362675 C254.551235,72.3344621 251.271444,80.928212 244.77459,87.1203718 C238.277735,93.3125315 229.334479,96.3682862 217.891054,96.3682862 L193.964708,96.3682862 L193.964708,131.056926 L167.547154,131.056926 L167.547154,25.6468323 Z M214.243855,74.6554019 C223.491791,74.6554019 228.115759,70.103134 228.187448,61.0792485 C228.187448,52.6467994 223.56348,48.3992109 214.243855,48.3992109 L193.964708,48.3992109 L193.964708,74.6554019 L214.243855,74.6554019 Z" id="Shape" fill="#FFFFFF"></path>
            <path d="M296.874881,133.055264 C284.723523,133.055264 274.866227,129.500672 267.302992,122.391487 C259.739758,115.282303 255.934243,105.311521 255.886451,92.4791439 C255.886451,79.4316988 259.691965,69.3384486 267.302992,62.1993932 C274.911033,55.0304673 284.831057,51.4460044 296.991376,51.4460044 C308.999356,51.4460044 318.76704,54.9498169 326.303391,62.0380924 C333.839742,69.1263678 337.639282,79.1987087 337.639282,92.3268042 C337.639282,105.230871 333.911432,115.222561 326.375081,122.230186 C318.838729,129.237811 309.0352,132.759546 297.01826,132.759546 L296.874881,133.055264 Z M311.866933,92.5597943 C311.866933,79.503388 306.875556,73.0155101 296.874881,73.0155101 C286.874206,73.0155101 281.88283,79.503388 281.88283,92.5597943 C281.88283,105.311521 286.883167,111.647059 296.874881,111.647059 C306.866595,111.647059 311.866933,105.311521 311.866933,92.5597943 Z" id="Shape" fill="#FFFFFF"></path>
            <path d="M380.912813,132.607207 C370.24901,132.607207 361.744852,130.671597 355.400338,126.863105 C347.353199,122.012132 343.326643,114.628138 343.320669,104.711124 L365.472702,104.711124 C365.544392,108.295587 366.592849,110.903283 368.609115,112.623826 C370.921099,114.631125 374.20089,115.527241 378.376799,115.312173 C380.496628,115.297721 382.56786,114.675731 384.344944,113.519941 C385.937626,112.495194 386.873723,110.708103 386.809268,108.815334 C386.942439,106.75477 385.826204,104.815493 383.977536,103.895658 C382.104649,102.927853 378.23342,101.727058 372.328004,100.311195 C368.824183,99.4957301 366.207519,98.8236433 364.424244,98.2232457 C362.064658,97.419723 359.746785,96.4985572 357.479331,95.4632093 C355.096007,94.4941372 352.920892,93.0765134 351.072088,91.2873099 C349.467105,89.4921442 348.157397,87.4534808 347.191898,85.2474899 C345.947804,82.455422 345.335813,79.4230144 345.399662,76.366983 C345.399662,67.943495 348.386722,61.6706849 354.360841,57.5485525 C360.328986,53.4443424 367.856376,51.428082 376.960933,51.428082 C385.020019,51.428082 391.890256,52.9962846 397.571643,56.1326897 C406.004112,60.9000254 410.251711,68.2123298 410.251711,77.9799913 L388.968912,77.9799913 C388.968912,74.7002077 388.001105,72.2448506 386.13718,70.676648 C384.273255,69.1084455 381.584901,68.4363587 378.30511,68.6603876 C376.062652,68.5811433 373.841994,69.1239007 371.888906,70.2285902 C370.275592,71.0668955 369.268314,72.7387642 369.281203,74.5568292 C369.264858,75.1838623 369.419764,75.8034881 369.729262,76.3490606 C370.070423,76.9116743 370.525178,77.3969482 371.064478,77.7738847 C371.671098,78.2127049 372.323015,78.5852279 373.009053,78.8850682 C373.910403,79.2611708 374.831818,79.5872551 375.769096,79.8618343 C376.960933,80.2292418 378.08108,80.52496 379.120577,80.7579501 C380.160074,80.9909402 381.584901,81.2866583 383.448826,81.7347162 C385.312751,82.1827741 386.880957,82.5501815 388.153445,82.9265501 C391.26225,83.7324368 394.322913,84.7137616 397.32073,85.8658098 C399.946452,86.9145879 402.427784,88.2937717 404.704741,89.9700198 C407.154538,91.743535 409.087718,94.1375808 410.305478,96.9059556 C411.613518,100.023941 412.248672,103.382917 412.169403,106.763229 C412.169403,115.192691 409.334684,121.60888 403.665245,126.011795 C397.992819,130.411723 390.608808,132.571362 381.441522,132.571362 L380.912813,132.607207 Z" id="Path" fill="#FFFFFF"></path>
            <path d="M443.443916,131.191344 C437.92383,131.191344 433.58662,129.399112 430.387479,125.8953 C427.188338,122.391487 425.620132,117.61519 425.620132,111.557448 L425.620132,70.1837844 L415.028019,70.1837844 L415.028019,52.8708284 L425.620132,52.8708284 L425.620132,34.8947467 L451.275986,34.8947467 L451.275986,52.8708284 L466.384533,52.8708284 L466.384533,70.1837844 L451.275986,70.1837844 L451.275986,105.132298 C451.275986,107.300898 451.724045,108.78845 452.620163,109.684566 C453.725202,110.656891 455.176152,111.141617 456.643732,111.02874 L466.384533,111.02874 L466.384533,131.021082 L443.515605,131.021082 L443.443916,131.191344 Z" id="Path" fill="#FFFFFF"></path>
            <path d="M500.81338,132.831235 C493.28599,132.831235 487.246156,130.895625 482.693878,127.087134 C478.141599,123.278642 475.829615,118.063248 475.829615,111.423031 C475.829615,100.615875 481.053982,92.8555125 491.422065,88.1240214 C499.254135,84.5395585 510.590026,82.6129096 525.358048,82.3082303 L525.358048,79.1001359 C525.358048,72.0925109 520.95811,68.5886984 512.229922,68.508048 C503.349394,68.508048 498.949455,71.644453 498.949455,77.8366128 L476.349363,77.8366128 C476.277674,69.4848141 479.485776,62.987975 485.973669,58.2923286 C492.461562,53.5966821 501.207672,51.2847035 512.077582,51.2847035 C522.947491,51.2847035 531.621912,53.5160317 538.064999,58.0682996 C544.508087,62.6205676 547.760994,69.6281926 547.760994,79.1001359 L547.760994,131.021082 L525.358048,131.021082 L525.358048,122.606555 C518.974605,129.251215 510.106438,132.928409 500.894031,132.750585 L500.81338,132.831235 Z M511.405493,114.487746 C516.768357,114.30385 521.805006,111.866873 525.277398,107.775839 L525.277398,96.7356936 C520.130749,96.1606615 514.922401,96.9038282 510.141967,98.8953325 C505.14163,101.063933 502.677306,104.039037 502.677306,107.85649 C502.573298,109.878023 503.501047,111.814483 505.14163,113.000194 C506.987835,114.238517 509.198416,114.816425 511.414455,114.640086 L511.405493,114.487746 Z" id="Shape" fill="#FFFFFF"></path>
            <polygon id="Path" fill="#FFFFFF" points="558.191806 25.6468323 584 25.6468323 584 131.047965 558.191806 131.047965"></polygon>
            <polygon id="Path" fill="url(#linearGradient-1)" points="0 20.9870305 14.2751573 92.7479786 0 158.263 46.2844867 158.263 46.2844867 20.9870305"></polygon>
            <path d="M92.7033911,0 L26.9821083,0 L26.9821083,137.275969 L73.2665951,137.275969 L73.2665951,92.7479786 L92.7033911,92.7479786 C118.315099,92.7479786 139.07749,71.9856364 139.07749,46.3739893 L139.07749,46.3739893 C139.07749,20.7623422 118.315099,0 92.7033911,0 Z" id="Path" fill="url(#linearGradient-2)"></path>
            <polygon id="Path" fill="#BF6D00" points="46.2844867 158.263 26.9821083 137.275969 46.2844867 137.275969"></polygon>
        </g>
    </g>
</svg>