<svg width="156" height="33" viewBox="0 0 156 33" fill="none" xmlns="http://www.w3.org/2000/svg">
<path d="M42.523 8.3988C42.2383 8.40432 41.9672 8.51999 41.7678 8.72095C41.5685 8.92191 41.4568 9.19214 41.4569 9.47357V25.2368C41.4291 25.3794 41.4309 25.5261 41.462 25.6681C41.4931 25.8101 41.553 25.9444 41.638 26.0629C41.723 26.1814 41.8314 26.2817 41.9567 26.3577C42.0819 26.4337 42.2214 26.4839 42.3668 26.5052C42.5122 26.5266 42.6605 26.5186 42.8027 26.4819C42.9449 26.4451 43.0781 26.3803 43.1942 26.2913C43.3104 26.2023 43.4072 26.091 43.4787 25.9641C43.5503 25.8372 43.5951 25.6973 43.6105 25.5529C43.6318 25.4556 43.6318 25.355 43.6105 25.2578V9.47357C43.6094 9.18886 43.4944 8.91614 43.2907 8.71482C43.087 8.5135 42.8111 8.39991 42.523 8.3988Z" fill="white"/>
<path d="M46.7449 17.2287L52.8646 10.0636C53.0196 9.87924 53.1095 9.64985 53.1204 9.41034C53.1178 9.14649 53.012 8.89386 52.8252 8.70532C52.6385 8.51679 52.3851 8.40695 52.1183 8.3988C51.9677 8.40639 51.8203 8.44389 51.6847 8.50906C51.5492 8.57424 51.4283 8.66575 51.3293 8.77813L44.5913 16.7019C44.4485 16.89 44.3734 17.12 44.3781 17.3552C44.3681 17.4743 44.3838 17.5941 44.4243 17.7067C44.4647 17.8194 44.5289 17.9222 44.6127 18.0084L51.3293 25.9111C51.4189 26.0177 51.5289 26.1057 51.6529 26.1703C51.777 26.2348 51.9127 26.2746 52.0522 26.2873C52.1918 26.3 52.3326 26.2854 52.4665 26.2444C52.6004 26.2034 52.7248 26.1366 52.8326 26.0481C52.9404 25.9595 53.0295 25.8509 53.0948 25.7283C53.1601 25.6057 53.2003 25.4716 53.2132 25.3336C53.2261 25.1956 53.2113 25.0565 53.1698 24.9242C53.1283 24.7919 53.0608 24.6689 52.9712 24.5624L46.7449 17.2287Z" fill="white"/>
<path d="M68.686 13.1615C68.5544 13.1612 68.4239 13.1866 68.3022 13.2363C68.1805 13.286 68.0699 13.3589 67.9768 13.4509C67.8837 13.543 67.8099 13.6523 67.7596 13.7726C67.7093 13.8929 67.6836 14.0218 67.6839 14.1519V15.1213C67.0769 14.4834 66.3431 13.9764 65.5286 13.6319C64.714 13.2874 63.8362 13.1129 62.9502 13.1193C59.2187 13.1193 56.3828 16.0275 56.3828 19.7365C56.3828 23.4455 59.2187 26.3747 62.9502 26.3747C63.8362 26.3812 64.714 26.2067 65.5286 25.8622C66.3431 25.5177 67.0769 25.0106 67.6839 24.3727V25.2789C67.6782 25.409 67.6984 25.5389 67.7436 25.6613C67.7887 25.7836 67.8579 25.8959 67.947 25.9918C68.0361 26.0878 68.1435 26.1654 68.263 26.2202C68.3825 26.2751 68.5118 26.3061 68.6434 26.3115H68.686C68.8177 26.3118 68.9482 26.2863 69.0699 26.2367C69.1916 26.187 69.3022 26.114 69.3953 26.022C69.4884 25.93 69.5622 25.8207 69.6125 25.7004C69.6628 25.5801 69.6885 25.4512 69.6882 25.321V14.1519C69.6911 13.8956 69.5923 13.6483 69.4129 13.4632C69.2336 13.278 68.9879 13.1697 68.7287 13.1615H68.686ZM67.6839 19.9472C67.5773 22.5393 65.5729 24.5202 63.0782 24.5202C60.5834 24.5202 58.4298 22.4339 58.4298 19.7365C58.4298 17.039 60.4768 14.9527 63.0782 14.9527C65.6795 14.9527 67.5773 16.9337 67.6839 19.5468V19.9472Z" fill="white"/>
<path d="M81.7142 15.2056C81.8374 15.2056 81.9594 15.1816 82.0733 15.135C82.1871 15.0884 82.2905 15.0201 82.3776 14.934C82.4648 14.8479 82.5339 14.7457 82.581 14.6332C82.6282 14.5207 82.6524 14.4001 82.6524 14.2784C82.6524 14.1566 82.6282 14.036 82.581 13.9235C82.5339 13.811 82.4648 13.7088 82.3776 13.6227C82.2905 13.5366 82.1871 13.4683 82.0733 13.4217C81.9594 13.3751 81.8374 13.3511 81.7142 13.3511H78.3666V11.1173C78.3747 10.861 78.2812 10.6117 78.1059 10.4227C77.9306 10.2337 77.6874 10.1199 77.4284 10.1057H77.3644C77.2327 10.1027 77.1017 10.1253 76.9789 10.1724C76.8561 10.2195 76.7439 10.2902 76.6488 10.3802C76.5537 10.4703 76.4776 10.5781 76.4247 10.6973C76.3719 10.8166 76.3434 10.945 76.3409 11.0751V13.3511H75.0189C74.7701 13.3511 74.5314 13.4488 74.3555 13.6227C74.1795 13.7966 74.0807 14.0324 74.0807 14.2784C74.0807 14.5243 74.1795 14.7601 74.3555 14.934C74.5314 15.1079 74.7701 15.2056 75.0189 15.2056H76.3409V20.8534C76.3409 24.2041 78.5798 26.3115 81.7142 26.3115C81.9414 26.2777 82.1488 26.1645 82.2988 25.9924C82.4487 25.8203 82.5311 25.6008 82.5311 25.3737C82.5311 25.1466 82.4487 24.9271 82.2988 24.755C82.1488 24.5829 81.9414 24.4697 81.7142 24.4359C79.7099 24.4359 78.3666 23.1926 78.3666 20.8534V15.2056H81.7142Z" fill="white"/>
<path d="M98.6658 13.1615C98.5342 13.1612 98.4037 13.1866 98.282 13.2363C98.1603 13.286 98.0497 13.3589 97.9566 13.4509C97.8635 13.543 97.7896 13.6523 97.7394 13.7726C97.6891 13.8929 97.6634 14.0218 97.6637 14.1519V15.1213C97.0567 14.4834 96.3229 13.9764 95.5083 13.6319C94.6938 13.2874 93.816 13.1129 92.93 13.1193C89.1985 13.1193 86.3626 16.0275 86.3626 19.7365C86.3626 23.4455 89.1985 26.3747 92.93 26.3747C93.816 26.3812 94.6938 26.2067 95.5083 25.8622C96.3229 25.5177 97.0567 25.0106 97.6637 24.3727V25.2789C97.6269 25.5444 97.6984 25.8134 97.8623 26.0268C98.0263 26.2402 98.2693 26.3805 98.5379 26.4169C98.8065 26.4532 99.0787 26.3826 99.2947 26.2205C99.5106 26.0585 99.6526 25.8183 99.6893 25.5528C99.7107 25.4556 99.7107 25.355 99.6893 25.2578V14.1519C99.6896 14.0218 99.6639 13.8929 99.6136 13.7726C99.5634 13.6523 99.4896 13.543 99.3964 13.4509C99.3033 13.3589 99.1927 13.286 99.071 13.2363C98.9493 13.1866 98.8188 13.1612 98.6872 13.1615H98.6658ZM97.6637 19.9472C97.5571 22.5393 95.5527 24.5202 93.058 24.5202C90.5632 24.5202 88.4309 22.4339 88.4309 19.7365C88.4309 17.039 90.4779 14.9527 93.058 14.9527C95.638 14.9527 97.5571 16.9337 97.6637 19.5468V19.9472Z" fill="white"/>
<path d="M112.163 13.1193C111.276 13.106 110.396 13.2774 109.581 13.6223C108.765 13.9672 108.032 14.478 107.429 15.1213V14.1519C107.421 13.8882 107.31 13.6378 107.119 13.4532C106.929 13.2686 106.673 13.1641 106.406 13.1615C106.147 13.1586 105.896 13.2562 105.709 13.4335C105.522 13.6108 105.412 13.8536 105.404 14.1098V30.0416C105.398 30.1717 105.418 30.3016 105.464 30.4239C105.509 30.5463 105.578 30.6586 105.667 30.7545C105.756 30.8504 105.863 30.928 105.983 30.9829C106.102 31.0377 106.232 31.0688 106.363 31.0742H106.406C106.68 31.0692 106.94 30.9581 107.132 30.765C107.323 30.5718 107.43 30.312 107.429 30.0416V24.3727C108.032 25.0161 108.765 25.5268 109.581 25.8717C110.396 26.2167 111.276 26.388 112.163 26.3747C115.873 26.3747 118.709 23.4455 118.709 19.7365C118.709 16.0275 115.873 13.1193 112.163 13.1193ZM112.035 24.5202C109.498 24.5202 107.515 22.5393 107.429 19.9472V19.5468C107.515 16.9337 109.498 14.9527 112.035 14.9527C114.573 14.9527 116.662 17.039 116.662 19.7365C116.662 22.4339 114.615 24.5202 112.035 24.5202Z" fill="white"/>
<path d="M133.934 13.1614C133.674 13.1586 133.424 13.2562 133.237 13.4335C133.049 13.6108 132.94 13.8535 132.932 14.1098V20.6426C132.932 23.1926 131.354 24.5202 129.392 24.5202C127.43 24.5202 125.874 23.1926 125.874 20.6426V14.1519C125.865 13.8882 125.754 13.6378 125.564 13.4532C125.373 13.2686 125.117 13.164 124.85 13.1614C124.591 13.1586 124.341 13.2562 124.153 13.4335C123.966 13.6108 123.856 13.8535 123.848 14.1098V20.5583C123.848 24.183 126.3 26.3747 129.392 26.3747C132.484 26.3747 134.957 24.183 134.957 20.5583V14.1519C134.949 13.8882 134.838 13.6378 134.647 13.4532C134.456 13.2686 134.201 13.164 133.934 13.1614Z" fill="white"/>
<path d="M141.653 8.39881C141.521 8.39853 141.39 8.42396 141.269 8.47363C141.147 8.52331 141.036 8.59626 140.943 8.68829C140.85 8.78032 140.776 8.88962 140.726 9.00991C140.676 9.1302 140.65 9.25913 140.65 9.38927V25.2789C140.645 25.409 140.665 25.5389 140.71 25.6613C140.755 25.7836 140.824 25.896 140.913 25.9919C141.003 26.0878 141.11 26.1654 141.229 26.2202C141.349 26.2751 141.478 26.3061 141.61 26.3115H141.653C141.787 26.3132 141.921 26.2882 142.046 26.238C142.171 26.1877 142.285 26.1133 142.38 26.019C142.475 25.9248 142.551 25.8126 142.602 25.6891C142.652 25.5656 142.678 25.4333 142.676 25.3V9.41035C142.665 9.1454 142.554 8.89411 142.365 8.70661C142.175 8.51912 141.921 8.40921 141.653 8.39881Z" fill="white"/>
<path d="M154.659 24.436C152.655 24.436 151.333 23.1926 151.333 20.8534V15.2057H154.659C154.908 15.2035 155.145 15.1051 155.32 14.9316C155.496 14.7582 155.595 14.5237 155.598 14.2784C155.595 14.0332 155.496 13.7986 155.32 13.6252C155.145 13.4518 154.908 13.3534 154.659 13.3512H151.333V11.1173C151.37 10.8519 151.298 10.5828 151.134 10.3694C150.97 10.156 150.727 10.0157 150.459 9.97936C150.19 9.94304 149.918 10.0137 149.702 10.1757C149.486 10.3377 149.344 10.5779 149.307 10.8434C149.286 10.9406 149.286 11.0412 149.307 11.1384V13.3722H147.964C147.716 13.3744 147.479 13.4728 147.303 13.6463C147.128 13.8197 147.028 14.0542 147.026 14.2995C147.028 14.5447 147.128 14.7793 147.303 14.9527C147.479 15.1261 147.716 15.2245 147.964 15.2267H149.307V20.8745C149.307 24.2252 151.525 26.3326 154.659 26.3326C154.887 26.2958 155.094 26.1802 155.243 26.0064C155.393 25.8327 155.475 25.6122 155.475 25.3843C155.475 25.1564 155.393 24.9359 155.243 24.7621C155.094 24.5884 154.887 24.4728 154.659 24.436Z" fill="white"/>
<path d="M28.7062 26.3815H22.8851L16.2962 19.7927L13.2897 16.7861L18.9616 11.1142C19.0788 10.9979 19.1499 10.8431 19.1616 10.6784C19.1734 10.5137 19.1251 10.3504 19.0256 10.2186C18.9687 10.1512 18.8985 10.0963 18.8194 10.0573C18.7402 10.0184 18.6539 9.9962 18.5658 9.9922C18.4777 9.98819 18.3897 10.0024 18.3074 10.0341C18.225 10.0657 18.1501 10.114 18.0874 10.176L12.3941 15.8692L6.42366 9.89877V3.99228C6.42046 3.46452 6.28671 2.94575 6.03433 2.48222C5.78195 2.0187 5.4188 1.62483 4.97724 1.33574C4.53568 1.04665 4.02945 0.871315 3.50368 0.825374C2.97791 0.779433 2.44894 0.864312 1.96393 1.07244C1.47893 1.28057 1.05297 1.60549 0.724024 2.01822C0.395083 2.43095 0.173385 2.91866 0.0786996 3.43787C-0.015986 3.95708 0.019283 4.49166 0.181362 4.99393C0.343441 5.4962 0.627292 5.95056 1.00761 6.3165L5.12296 10.4318V23.1191L0.943638 27.3197C0.50824 27.7525 0.206587 28.3014 0.0746926 28.901C-0.0572019 29.5005 -0.0137657 30.1254 0.199816 30.7009C0.413397 31.2765 0.7881 31.7784 1.27919 32.1468C1.77028 32.5152 2.35701 32.7344 2.96933 32.7784C3.41277 32.8053 3.85701 32.7407 4.2744 32.5885C4.69178 32.4364 5.07337 32.1999 5.39541 31.8939C5.71745 31.5878 5.97304 31.2188 6.14627 30.8097C6.3195 30.4006 6.40667 29.9602 6.40234 29.516V23.6948L12.3728 17.7243L21.0513 26.4028V26.4241H13.4603C13.2983 26.4209 13.1409 26.478 13.0187 26.5845C12.8965 26.6909 12.8183 26.8389 12.7993 26.9999C12.7903 27.0891 12.8002 27.1792 12.8283 27.2643C12.8564 27.3495 12.9021 27.4278 12.9624 27.4941C13.0227 27.5605 13.0963 27.6134 13.1784 27.6495C13.2605 27.6856 13.3493 27.704 13.4389 27.7035H22.352L26.5313 31.8828C26.9094 32.2554 27.374 32.5285 27.8834 32.6777C28.3928 32.8269 28.9313 32.8476 29.4507 32.7379C29.9701 32.6282 30.4542 32.3915 30.8598 32.049C31.2653 31.7066 31.5798 31.269 31.7749 30.7753C31.9701 30.2816 32.0399 29.7473 31.9782 29.2201C31.9164 28.6928 31.725 28.1891 31.4211 27.7539C31.1171 27.3187 30.7101 26.9656 30.2364 26.7261C29.7626 26.4866 29.2369 26.3682 28.7062 26.3815ZM5.12296 29.516C5.13211 30.0192 4.94642 30.5066 4.60468 30.8761C4.26295 31.2457 3.79161 31.4688 3.28917 31.499C3.03007 31.5105 2.77132 31.4694 2.52856 31.3782C2.28579 31.2869 2.06404 31.1474 1.8767 30.968C1.68937 30.7886 1.54033 30.5732 1.4386 30.3346C1.33687 30.096 1.28455 29.8393 1.28481 29.5799C1.28863 29.071 1.48698 28.5827 1.83921 28.2153L5.10163 24.9528H5.12296V29.516ZM5.12296 3.99228V8.61939H5.10163L1.88185 5.39961C1.52338 5.05063 1.31248 4.57741 1.29264 4.07752C1.27281 3.57763 1.44554 3.08918 1.77524 2.7129C1.95002 2.52165 2.16172 2.36777 2.39757 2.26054C2.63343 2.1533 2.88856 2.09494 3.14757 2.08896C3.40659 2.08299 3.66414 2.12952 3.90469 2.22576C4.14524 2.322 4.36381 2.46595 4.54723 2.64893C4.73088 2.82086 4.87686 3.02901 4.97596 3.26024C5.07505 3.49146 5.12511 3.74073 5.12296 3.99228ZM11.4772 16.7861L6.42366 21.8397H6.40234V11.7326H6.42366L8.44935 13.7582L11.4772 16.7861ZM28.7915 31.499C28.2826 31.4952 27.7943 31.2968 27.4269 30.9446L24.1644 27.6822V27.6609H28.7276C29.2308 27.6517 29.7182 27.8374 30.0877 28.1791C30.4573 28.5209 30.6804 28.9922 30.7106 29.4947C30.7206 29.7534 30.6785 30.0115 30.5867 30.2536C30.4949 30.4957 30.3553 30.7168 30.1762 30.9039C29.9971 31.0909 29.7823 31.24 29.5444 31.3422C29.3065 31.4445 29.0505 31.4978 28.7915 31.499Z" fill="url(#paint0_linear_1894_485083)"/>
<path d="M22.2027 14.27C22.3346 14.3691 22.4979 14.4172 22.6625 14.4054C22.827 14.3936 22.9818 14.3229 23.0983 14.2061L31.0731 6.25256C31.6495 5.65482 31.9709 4.85633 31.9692 4.02595C31.9675 3.19556 31.643 2.39838 31.0642 1.80296C30.4853 1.20754 29.6977 0.860561 28.8677 0.835394C28.0377 0.810228 27.2304 1.10885 26.6166 1.6681L26.5526 1.73207L22.1814 6.08198C22.0642 6.19825 21.9931 6.35308 21.9814 6.51776C21.9696 6.68243 22.0179 6.84579 22.1174 6.97754C22.1743 7.04494 22.2445 7.09985 22.3237 7.13881C22.4028 7.17778 22.4891 7.19996 22.5772 7.20396C22.6653 7.20797 22.7533 7.19371 22.8356 7.16208C22.918 7.13046 22.9929 7.08215 23.0556 7.02019L27.4269 2.64896L27.5122 2.56367C27.888 2.2499 28.3696 2.09165 28.8583 2.12132C29.347 2.15099 29.8059 2.36634 30.141 2.72327C30.4762 3.08021 30.6622 3.55174 30.6611 4.04135C30.6599 4.53097 30.4717 5.00163 30.1349 5.35699L22.1387 13.3531C22.0815 13.4169 22.0376 13.4916 22.0097 13.5727C21.9818 13.6537 21.9705 13.7396 21.9765 13.8251C21.9825 13.9107 22.0056 13.9941 22.0444 14.0706C22.0833 14.147 22.1371 14.2148 22.2027 14.27Z" fill="url(#paint1_linear_1894_485083)"/>
<defs>
<linearGradient id="paint0_linear_1894_485083" x1="33.4272" y1="-2.10397" x2="2.4661" y2="31.5033" gradientUnits="userSpaceOnUse">
<stop stop-color="#00FFFF"/>
<stop offset="0.44" stop-color="#19AEEF"/>
<stop offset="0.82" stop-color="#2E6DE2"/>
<stop offset="1" stop-color="#3654DD"/>
</linearGradient>
<linearGradient id="paint1_linear_1894_485083" x1="33.8707" y1="-1.69454" x2="2.91602" y2="31.9085" gradientUnits="userSpaceOnUse">
<stop stop-color="#00FFFF"/>
<stop offset="0.44" stop-color="#19AEEF"/>
<stop offset="0.82" stop-color="#2E6DE2"/>
<stop offset="1" stop-color="#3654DD"/>
</linearGradient>
</defs>
</svg>
