<svg width="128" height="32" viewBox="0 0 128 32" fill="none" xmlns="http://www.w3.org/2000/svg">
<g clip-path="url(#clip0_5854_229549)">
<path d="M61.9893 13.0297C62.4766 12.2668 63.139 11.6311 63.9214 11.1756C64.7002 10.7102 65.5927 10.4695 66.4999 10.4803V15.1421H65.2868C64.188 15.1421 63.3635 15.3824 62.8134 15.8629C62.2634 16.3271 61.9887 17.1514 61.9893 18.3357V25.0077H57.5828V10.6345H61.9893V13.0297Z" fill="#182229"/>
<path d="M83.5453 10.6333L75.4376 29.6958H70.7521L73.085 24.5165L67.2366 10.6333H72.1578L75.4837 19.623L78.7793 10.6333H83.5453Z" fill="#182229"/>
<path d="M89.6992 25.2129C88.4458 25.2129 87.3296 24.9985 86.3506 24.5697C85.3716 24.1408 84.5986 23.5568 84.0315 22.8177C83.4743 22.0874 83.1431 21.2101 83.0787 20.2938H87.4321C87.454 20.5341 87.5275 20.7668 87.6475 20.9761C87.7675 21.1854 87.9313 21.3664 88.1276 21.5067C88.5401 21.815 89.047 21.9695 89.6481 21.9702C90.1975 21.9702 90.6183 21.8671 90.9103 21.6608C91.0527 21.5692 91.1697 21.4434 91.2507 21.2948C91.3317 21.1462 91.3741 20.9796 91.374 20.8104C91.374 20.3992 91.1592 20.0987 90.7296 19.9089C90.3007 19.7033 89.6052 19.48 88.6432 19.2391C87.7695 19.045 86.909 18.7957 86.0667 18.4928C85.3821 18.2196 84.7726 17.7869 84.2888 17.2308C83.7905 16.6468 83.5416 15.8655 83.5423 14.8867C83.5341 14.0892 83.7676 13.3079 84.2122 12.6457C84.6758 11.9595 85.3454 11.4187 86.221 11.0233C87.1148 10.6305 88.1714 10.4341 89.3908 10.4341C91.1942 10.4341 92.611 10.8806 93.6411 11.7736C94.6888 12.6659 95.29 13.851 95.4445 15.3286H91.374C91.3483 15.0957 91.2756 14.8705 91.1605 14.6664C91.0454 14.4624 90.8901 14.2838 90.7041 14.1413C90.3439 13.8493 89.8629 13.7033 89.2611 13.7033C88.7464 13.7033 88.3515 13.8064 88.0765 14.0127C87.9446 14.0988 87.8373 14.2176 87.7651 14.3576C87.6928 14.4975 87.6579 14.6537 87.6639 14.8111C87.6639 15.2235 87.8787 15.5325 88.3083 15.7381C88.7542 15.9443 89.4418 16.1506 90.3711 16.3568C91.2557 16.5737 92.1249 16.849 92.9731 17.1807C93.658 17.4486 94.2613 17.8903 94.7235 18.4623C95.2382 19.0457 95.5044 19.8355 95.5221 20.832C95.5309 21.6454 95.2777 22.44 94.8001 23.0986C94.3345 23.7526 93.6561 24.2695 92.7649 24.6492C91.888 25.0257 90.8661 25.2136 89.6992 25.2129Z" fill="#182229"/>
<path d="M105.456 21.2728V25.0046H103.215C101.619 25.0046 100.375 24.6187 99.4826 23.8468C98.5901 23.0572 98.1432 21.7779 98.1418 20.0089V14.2915H96.3885V10.6353H98.1399V8.30687L102.527 7.12842H102.547V10.6353H105.431V14.2915H102.549V20.063C102.549 20.4902 102.648 20.8005 102.857 20.988C103.066 21.1756 103.407 21.2728 103.887 21.2728H105.456Z" fill="#182229"/>
<path d="M128 5.98926V25.0498H123.593V7.16968L127.998 5.98926H128Z" fill="#182229"/>
<path d="M56.5102 25.0067H51.1253L46.6275 19.0978L45.047 21.0962V25.0067H40.6396V6.92627H45.047V14.8592L51.0753 6.92627H56.2528L49.2443 15.7873L56.5102 25.0067Z" fill="#182229"/>
<path d="M106.262 17.7955C106.262 16.3185 106.537 15.0218 107.086 13.9056C107.653 12.7926 108.417 11.9339 109.379 11.3297C110.344 10.7277 111.462 10.4148 112.6 10.4281C113.614 10.4281 114.498 10.6344 115.252 11.0468C115.98 11.4174 116.595 11.978 117.03 12.6692V10.6344H121.435V25.0076H117.03V22.9728C116.58 23.661 115.958 24.2202 115.226 24.5952C114.471 25.0076 113.587 25.2135 112.574 25.2129C111.445 25.2237 110.336 24.9109 109.379 24.3113C108.418 23.6933 107.653 22.8262 107.086 21.7099C106.536 20.5766 106.262 19.2718 106.262 17.7955ZM117.031 17.821C117.031 16.7224 116.722 15.8553 116.104 15.2195C115.823 14.9125 115.48 14.6687 115.098 14.5043C114.716 14.3398 114.304 14.2586 113.888 14.266C113.456 14.2601 113.028 14.3417 112.629 14.5059C112.23 14.6702 111.869 14.9136 111.567 15.2215C110.965 15.8395 110.665 16.6982 110.665 17.7974C110.665 18.8967 110.965 19.773 111.567 20.4264C111.869 20.7338 112.231 20.9767 112.629 21.1404C113.028 21.3042 113.456 21.3853 113.888 21.3789C114.304 21.3866 114.716 21.3056 115.099 21.1413C115.481 20.9771 115.824 20.7334 116.105 20.4264C116.722 19.7887 117.031 18.9202 117.031 17.821Z" fill="#182229"/>
<path d="M31.6733 6.88906L15.8381 10.9341L0.0067749 6.89004L7.43669 0H24.2453L31.6733 6.88906Z" fill="#182229"/>
<path d="M31.6822 10.1582L17.4255 31.9999V13.7987L31.6822 10.1582Z" fill="#182229"/>
<path d="M14.2557 13.8006V31.9999L0 10.1592L14.2557 13.8006Z" fill="#182229"/>
</g>
<defs>
<clipPath id="clip0_5854_229549">
<rect width="128" height="32" fill="white"/>
</clipPath>
</defs>
</svg>
